<svg xmlns="http://www.w3.org/2000/svg"
     width="120"
     height="120"
     viewBox="0 0 120 120"
     fill="none">

  <!-- =========================================================
       BLURPLE CLOUD BORDER
       True 9-slice artwork
       
       Slice areas:
         corners = 30px
         edges   = 60px
       
       Center remains completely transparent.
       ========================================================= -->


  <!-- =========================================================
       TOP CLOUD EDGE
       Large, soft individual puffs
       ========================================================= -->

  <path
    d="
      M30 17

      C30 6 38 3 43 3
      C48 3 54 7 54 17

      C54 7 60 3 65 3
      C70 3 76 7 76 17

      C76 7 82 3 87 3
      C92 3 90 7 90 17
    "
    stroke="#7660A8"
    stroke-width="7"
    stroke-linecap="round"
    stroke-linejoin="round"
  />

  <path
    d="
      M30 17

      C30 8 38 6 43 6
      C48 6 54 9 54 17

      C54 9 60 6 65 6
      C70 6 76 9 76 17

      C76 9 82 6 87 6
      C92 6 90 9 90 17
    "
    stroke="#7898D1"
    stroke-width="3.5"
    stroke-linecap="round"
    stroke-linejoin="round"
  />


  <!-- =========================================================
       BOTTOM CLOUD EDGE
       ========================================================= -->

  <path
    d="
      M30 103

      C30 114 38 117 43 117
      C48 117 54 113 54 103

      C54 113 60 117 65 117
      C70 117 76 113 76 103

      C76 113 82 117 87 117
      C92 117 90 113 90 103
    "
    stroke="#7660A8"
    stroke-width="7"
    stroke-linecap="round"
    stroke-linejoin="round"
  />

  <path
    d="
      M30 103

      C30 112 38 114 43 114
      C48 114 54 111 54 103

      C54 111 60 114 65 114
      C70 114 76 111 76 103

      C76 111 82 114 87 114
      C92 114 90 111 90 103
    "
    stroke="#7898D1"
    stroke-width="3.5"
    stroke-linecap="round"
    stroke-linejoin="round"
  />


  <!-- =========================================================
       LEFT CLOUD EDGE
       ========================================================= -->

  <path
    d="
      M17 30

      C6 30 3 38 3 43
      C3 48 7 54 17 54

      C7 54 3 60 3 65
      C3 70 7 76 17 76

      C7 76 3 82 3 87
      C3 92 7 90 17 90
    "
    stroke="#7660A8"
    stroke-width="7"
    stroke-linecap="round"
    stroke-linejoin="round"
  />

  <path
    d="
      M17 30

      C8 30 6 38 6 43
      C6 48 9 54 17 54

      C9 54 6 60 6 65
      C6 70 9 76 17 76

      C9 76 6 82 6 87
      C6 92 9 90 17 90
    "
    stroke="#7898D1"
    stroke-width="3.5"
    stroke-linecap="round"
    stroke-linejoin="round"
  />


  <!-- =========================================================
       RIGHT CLOUD EDGE
       ========================================================= -->

  <path
    d="
      M103 30

      C114 30 117 38 117 43
      C117 48 113 54 103 54

      C113 54 117 60 117 65
      C117 70 113 76 103 76

      C113 76 117 82 117 87
      C117 92 113 90 103 90
    "
    stroke="#7660A8"
    stroke-width="7"
    stroke-linecap="round"
    stroke-linejoin="round"
  />

  <path
    d="
      M103 30

      C112 30 114 38 114 43
      C114 48 111 54 103 54

      C111 54 114 60 114 65
      C114 70 111 76 103 76

      C111 76 114 82 114 87
      C114 92 111 90 103 90
    "
    stroke="#7898D1"
    stroke-width="3.5"
    stroke-linecap="round"
    stroke-linejoin="round"
  />


  <!-- =========================================================
       TOP-LEFT CORNER
       ========================================================= -->

  <path
    d="
      M30 17
      H18
      C10 17 6 22 6 30
      V30
    "
    stroke="#7660A8"
    stroke-width="7"
    stroke-linecap="round"
    stroke-linejoin="round"
  />


  <!-- TOP-RIGHT CORNER -->

  <path
    d="
      M90 17
      H102
      C110 17 114 22 114 30
      V30
    "
    stroke="#7660A8"
    stroke-width="7"
    stroke-linecap="round"
    stroke-linejoin="round"
  />


  <!-- BOTTOM-LEFT CORNER -->

  <path
    d="
      M17 90
      V102
      C17 110 22 114 30 114
      H30
    "
    stroke="#7660A8"
    stroke-width="7"
    stroke-linecap="round"
    stroke-linejoin="round"
  />


  <!-- BOTTOM-RIGHT CORNER -->

  <path
    d="
      M103 90
      V102
      C103 110 98 114 90 114
      H90
    "
    stroke="#7660A8"
    stroke-width="7"
    stroke-linecap="round"
    stroke-linejoin="round"
  />

</svg>